# xmcd
#
# Track frame offsets:
#	150
#	5172
#	24940
#	47505
#	67833
#	83498
#	99663
#	121134
#	141315
#	150983
#	173095
#	192371
#	209703
#	215563
#	233563
#	254313
#	274668
#	277589
#
# Disc length: 3985 seconds
#
# Revision: 3
# Processed by: cddbd v1.4PL0 Copyright (c) Steve Scherf et al.
# Submitted via: dBpowerAMP V4.0
#
DISCID=eb0f8f12
DTITLE=Missy Misdemeanor Elliot - Da Real World
DYEAR=1900
DGENRE=blues
TTITLE0=Mysterious (intro)
TTITLE1=Beat Biters
TTITLE2=Missy Misdemeanor Elliot feat. Eminem - Busa Rhyme
TTITLE3=Missy Misdemeanor Elliot feat. Big Boi Of Outkast and Nicole - All N My Grill
TTITLE4=Missy Misdemeanor Elliot feat. Redman - Dangerous Mouth
TTITLE5=Hot Boyz
TTITLE6=Missy Misdemeanor Elliot feat. Lil' Mo - You Don't Know
TTITLE7=Missy Misdemeanor Elliot feat. Lady Saw - Mr. D.J.
TTITLE8=Missy Misdemeanor Elliot feat. Lil Kim - Checkin' For You - interlude
TTITLE9=Missy Misdemeanor Elliot feat. Aaliyah and Da Brat - Stickin' Chickens
TTITLE10=Smooth Chick
TTITLE11=We Did It
TTITLE12=Missy Misdemeanor Elliot feat. Lil Kim - Throw Your Hands Up - interlude
TTITLE13=She's A B****
TTITLE14=Missy Misdemeanor Elliot feat. Juvenile and B. G. - U Can't Resist
TTITLE15=Missy Misdemeanor Elliot feat Beyonce of Destiny's Child - Crazy Feelings
TTITLE16=Religious Blessings [outro]
TTITLE17=Missy Misdemeanor Elliot feat MC Solaar - All N My Grill
EXTD=Copy: 1999 Elektra
EXTT0=
EXTT1=
EXTT2=
EXTT3=
EXTT4=
EXTT5=
EXTT6=
EXTT7=
EXTT8=
EXTT9=
EXTT10=
EXTT11=
EXTT12=
EXTT13=
EXTT14=
EXTT15=
EXTT16=
EXTT17=
PLAYORDER=
